<?xml version="1.0" encoding="UTF-8" ?>
<!DOCTYPE svg PUBLIC "-//W3C//DTD SVG 1.1//EN" "http://www.w3.org/Graphics/SVG/1.1/DTD/svg11.dtd">
<svg width="254pt" height="254pt" viewBox="0 0 254 254" version="1.1" xmlns="http://www.w3.org/2000/svg">
<g id="#9ecd63fd">
<path fill="#9ecd63" opacity="1.00" d=" M 107.71 0.00 L 147.21 0.00 C 161.57 2.42 175.80 6.39 188.66 13.35 C 211.18 25.46 230.48 44.33 241.31 67.66 C 249.20 84.64 252.92 103.37 253.29 122.03 C 254.11 146.88 249.48 172.39 237.12 194.18 C 222.34 220.09 197.72 240.50 169.03 249.05 C 161.90 251.27 154.54 252.56 147.23 254.00 L 106.80 254.00 C 94.67 251.76 82.56 248.91 71.36 243.61 C 44.77 231.22 22.29 209.21 11.13 181.90 C 3.67 163.93 0.90 144.33 1.02 124.97 C 1.33 108.48 3.74 91.90 9.55 76.41 C 19.99 47.68 43.01 24.49 70.27 11.25 C 82.02 5.43 94.85 2.21 107.71 0.00 M 115.38 1.41 C 75.60 3.98 37.65 27.38 18.23 62.29 C 8.64 79.60 4.16 99.36 3.31 119.04 C 2.07 145.17 6.45 172.26 19.93 195.01 C 37.10 223.93 67.29 244.70 100.38 250.65 C 123.34 254.76 147.35 253.65 169.67 246.74 C 198.49 237.75 223.01 216.65 237.09 190.05 C 246.13 172.79 250.49 153.36 251.20 133.97 C 252.24 108.77 248.10 82.72 235.37 60.65 C 225.63 43.39 210.93 29.24 194.17 18.82 C 170.82 4.29 142.56 -0.79 115.38 1.41 Z" />
<path fill="#9ecd63" opacity="1.00" d=" M 103.98 42.00 C 118.79 38.26 134.54 37.98 149.42 41.55 C 168.98 46.20 186.40 58.84 197.29 75.68 C 206.83 90.58 210.81 108.46 210.80 126.01 C 211.02 145.14 206.97 164.97 195.81 180.83 C 186.47 193.89 173.10 204.30 157.85 209.48 C 156.73 200.38 157.74 191.16 157.23 182.02 C 156.45 171.20 156.03 160.30 156.57 149.48 C 159.09 146.36 162.57 144.05 164.49 140.44 C 170.37 130.04 171.89 117.77 171.71 106.00 C 171.67 96.31 171.68 86.63 171.74 76.95 C 171.57 74.97 172.12 72.01 169.64 71.28 C 167.80 70.13 164.44 70.54 164.48 73.23 C 164.20 83.47 164.51 93.74 164.39 104.00 C 164.24 110.64 164.88 117.32 163.90 123.92 C 162.50 123.79 161.04 123.86 159.73 123.31 C 158.69 118.28 159.48 113.10 159.29 108.00 C 159.11 95.33 159.62 82.65 159.03 69.99 C 156.99 68.93 153.80 68.97 153.88 72.03 C 153.25 89.20 154.24 106.43 153.43 123.59 C 151.88 123.64 148.94 124.47 149.02 121.96 C 148.62 105.65 149.12 89.32 148.83 73.01 C 149.00 71.08 147.45 68.81 145.32 69.37 C 143.26 69.94 143.40 72.28 143.33 73.98 C 143.28 90.35 143.54 106.73 143.25 123.10 C 141.55 123.88 138.34 124.64 138.21 121.86 C 137.59 105.28 138.61 88.65 137.73 72.08 C 134.50 70.42 130.08 73.21 130.72 76.95 C 130.65 87.63 130.73 98.31 130.70 108.99 C 131.14 120.10 132.59 131.71 138.64 141.31 C 140.50 144.46 143.55 146.57 145.94 149.26 C 147.22 157.78 145.50 166.39 145.44 174.95 C 145.43 187.59 145.37 200.23 144.53 212.85 C 129.98 215.78 114.61 214.84 100.37 210.71 C 99.26 201.51 99.37 192.23 99.24 182.98 C 99.27 181.16 99.16 179.30 99.64 177.53 C 102.78 174.03 106.72 171.10 108.59 166.63 C 115.80 151.11 116.34 132.88 111.55 116.57 C 109.22 109.49 105.80 101.73 98.73 98.28 C 93.96 95.75 88.23 98.11 84.84 101.83 C 78.46 108.70 75.73 118.12 74.47 127.21 C 72.62 141.29 73.99 156.43 81.09 168.96 C 82.95 172.64 86.93 174.68 88.93 178.16 C 89.71 187.38 88.56 196.65 88.51 205.90 C 71.75 197.69 58.00 183.17 51.17 165.76 C 46.26 153.48 44.29 140.17 44.52 127.00 C 44.20 109.37 47.89 91.32 57.24 76.20 C 67.79 59.48 84.82 46.95 103.98 42.00 M 101.65 44.71 C 81.63 50.82 64.18 65.30 55.13 84.25 C 47.11 100.52 45.68 119.11 46.78 136.97 C 47.58 148.02 50.01 159.05 54.80 169.08 C 61.43 183.38 72.91 195.13 86.64 202.76 C 86.54 194.90 87.55 187.02 86.93 179.17 C 85.17 175.83 81.50 173.82 79.57 170.50 C 73.77 160.74 71.93 149.18 71.60 137.99 C 71.83 126.79 73.69 115.21 79.50 105.45 C 82.40 100.75 86.54 95.99 92.39 95.36 C 98.63 94.30 104.15 98.64 107.54 103.45 C 114.42 113.17 116.21 125.37 116.99 136.97 C 116.53 148.35 114.95 160.13 109.06 170.11 C 107.09 173.36 104.06 175.71 101.59 178.52 C 100.54 188.65 102.16 198.83 102.16 208.98 C 115.14 213.15 129.14 213.07 142.58 211.52 C 143.64 193.69 143.02 175.81 144.26 157.98 C 144.29 155.41 144.60 152.77 143.95 150.26 C 140.41 146.65 136.62 143.12 134.67 138.32 C 126.71 121.69 129.05 102.82 128.68 85.00 C 128.88 80.85 128.04 76.48 129.44 72.49 C 131.18 70.89 133.41 69.57 135.82 69.45 C 137.22 69.83 138.47 70.62 139.78 71.25 C 140.94 88.26 139.48 105.38 140.51 122.40 C 141.31 120.37 141.47 118.18 141.40 116.02 C 141.22 102.02 141.52 88.00 141.20 74.00 C 141.06 71.64 141.67 68.68 144.16 67.76 C 147.50 66.30 151.36 69.48 151.11 72.97 C 151.37 89.38 150.83 105.82 151.37 122.22 C 151.68 120.86 151.94 119.47 151.91 118.06 C 151.76 103.37 151.92 88.67 151.80 73.97 C 151.90 72.04 151.59 69.63 153.35 68.32 C 156.17 65.80 161.67 67.87 161.20 71.97 C 161.09 87.66 161.20 103.36 161.10 119.05 C 161.15 120.13 161.34 121.18 161.65 122.22 C 162.17 106.82 161.63 91.38 161.90 75.97 C 161.83 73.04 162.85 69.46 166.06 68.65 C 169.75 68.12 174.28 70.84 174.00 74.95 C 174.10 86.98 174.06 99.01 174.01 111.05 C 173.23 122.13 171.49 133.71 165.13 143.12 C 163.36 145.93 160.59 147.88 158.57 150.48 C 158.10 158.64 158.53 166.83 159.06 174.99 C 159.52 185.60 159.33 196.23 159.45 206.85 C 175.39 200.45 189.49 188.88 197.87 173.76 C 206.28 159.04 209.04 141.76 208.75 125.00 C 208.64 108.09 204.77 90.86 195.47 76.56 C 183.94 58.73 164.78 45.91 143.79 42.41 C 129.81 40.10 115.26 40.66 101.65 44.71 Z" />
<path fill="#9ecd63" opacity="1.00" d=" M 85.09 117.03 C 85.31 116.14 85.80 115.43 86.57 114.89 C 86.44 130.65 86.66 146.42 86.47 162.18 C 83.92 159.59 83.34 155.84 82.46 152.46 C 80.24 140.64 82.36 128.57 85.09 117.03 Z" />
</g>
<g id="#41644aff">
<path fill="#41644a" opacity="1.00" d=" M 115.38 1.41 C 142.56 -0.79 170.82 4.29 194.17 18.82 C 210.93 29.24 225.63 43.39 235.37 60.65 C 248.10 82.72 252.24 108.77 251.20 133.97 C 250.49 153.36 246.13 172.79 237.09 190.05 C 223.01 216.65 198.49 237.75 169.67 246.74 C 147.35 253.65 123.34 254.76 100.38 250.65 C 67.29 244.70 37.10 223.93 19.93 195.01 C 6.45 172.26 2.07 145.17 3.31 119.04 C 4.16 99.36 8.64 79.60 18.23 62.29 C 37.65 27.38 75.60 3.98 115.38 1.41 M 103.98 42.00 C 84.82 46.95 67.79 59.48 57.24 76.20 C 47.89 91.32 44.20 109.37 44.52 127.00 C 44.29 140.17 46.26 153.48 51.17 165.76 C 58.00 183.17 71.75 197.69 88.51 205.90 C 88.56 196.65 89.71 187.38 88.93 178.16 C 86.93 174.68 82.95 172.64 81.09 168.96 C 73.99 156.43 72.62 141.29 74.47 127.21 C 75.73 118.12 78.46 108.70 84.84 101.83 C 88.23 98.11 93.96 95.75 98.73 98.28 C 105.80 101.73 109.22 109.49 111.55 116.57 C 116.34 132.88 115.80 151.11 108.59 166.63 C 106.72 171.10 102.78 174.03 99.64 177.53 C 99.16 179.30 99.27 181.16 99.24 182.98 C 99.37 192.23 99.26 201.51 100.37 210.71 C 114.61 214.84 129.98 215.78 144.53 212.85 C 145.37 200.23 145.43 187.59 145.44 174.95 C 145.50 166.39 147.22 157.78 145.94 149.26 C 143.55 146.57 140.50 144.46 138.64 141.31 C 132.59 131.71 131.14 120.10 130.70 108.99 C 130.73 98.31 130.65 87.63 130.72 76.95 C 130.08 73.21 134.50 70.42 137.73 72.08 C 138.61 88.65 137.59 105.28 138.21 121.86 C 138.34 124.64 141.55 123.88 143.25 123.10 C 143.54 106.73 143.28 90.35 143.33 73.98 C 143.40 72.28 143.26 69.94 145.32 69.37 C 147.45 68.81 149.00 71.08 148.83 73.01 C 149.12 89.32 148.62 105.65 149.02 121.96 C 148.94 124.47 151.88 123.64 153.43 123.59 C 154.24 106.43 153.25 89.20 153.88 72.03 C 153.80 68.97 156.99 68.93 159.03 69.99 C 159.62 82.65 159.11 95.33 159.29 108.00 C 159.48 113.10 158.69 118.28 159.73 123.31 C 161.04 123.86 162.50 123.79 163.90 123.92 C 164.88 117.32 164.24 110.64 164.39 104.00 C 164.51 93.74 164.20 83.47 164.48 73.23 C 164.44 70.54 167.80 70.13 169.64 71.28 C 172.12 72.01 171.57 74.97 171.74 76.95 C 171.68 86.63 171.67 96.31 171.71 106.00 C 171.89 117.77 170.37 130.04 164.49 140.44 C 162.57 144.05 159.09 146.36 156.57 149.48 C 156.03 160.30 156.45 171.20 157.23 182.02 C 157.74 191.16 156.73 200.38 157.85 209.48 C 173.10 204.30 186.47 193.89 195.81 180.83 C 206.97 164.97 211.02 145.14 210.80 126.01 C 210.81 108.46 206.83 90.58 197.29 75.68 C 186.40 58.84 168.98 46.20 149.42 41.55 C 134.54 37.98 118.79 38.26 103.98 42.00 M 85.09 117.03 C 82.36 128.57 80.24 140.64 82.46 152.46 C 83.34 155.84 83.92 159.59 86.47 162.18 C 86.66 146.42 86.44 130.65 86.57 114.89 C 85.80 115.43 85.31 116.14 85.09 117.03 Z" />
</g>
<g id="#ffffffff">
<path fill="#ffffff" opacity="1.00" d=" M 101.65 44.71 C 115.26 40.66 129.81 40.10 143.79 42.41 C 164.78 45.91 183.94 58.73 195.47 76.56 C 204.77 90.86 208.64 108.09 208.75 125.00 C 209.04 141.76 206.28 159.04 197.87 173.76 C 189.49 188.88 175.39 200.45 159.45 206.85 C 159.33 196.23 159.52 185.60 159.06 174.99 C 158.53 166.83 158.10 158.64 158.57 150.48 C 160.59 147.88 163.36 145.93 165.13 143.12 C 171.49 133.71 173.23 122.13 174.01 111.05 C 174.06 99.01 174.10 86.98 174.00 74.95 C 174.28 70.84 169.75 68.12 166.06 68.65 C 162.85 69.46 161.83 73.04 161.90 75.97 C 161.63 91.38 162.17 106.82 161.65 122.22 C 161.34 121.18 161.15 120.13 161.10 119.05 C 161.20 103.36 161.09 87.66 161.20 71.97 C 161.67 67.87 156.17 65.80 153.35 68.32 C 151.59 69.63 151.90 72.04 151.80 73.97 C 151.92 88.67 151.76 103.37 151.91 118.06 C 151.94 119.47 151.68 120.86 151.37 122.22 C 150.83 105.82 151.37 89.38 151.11 72.97 C 151.36 69.48 147.50 66.30 144.16 67.76 C 141.67 68.68 141.06 71.64 141.20 74.00 C 141.52 88.00 141.22 102.02 141.40 116.02 C 141.47 118.18 141.31 120.37 140.51 122.40 C 139.48 105.38 140.94 88.26 139.78 71.25 C 138.47 70.62 137.22 69.83 135.82 69.45 C 133.41 69.57 131.18 70.89 129.44 72.49 C 128.04 76.48 128.88 80.85 128.68 85.00 C 129.05 102.82 126.71 121.69 134.67 138.32 C 136.62 143.12 140.41 146.65 143.95 150.26 C 144.60 152.77 144.29 155.41 144.26 157.98 C 143.02 175.81 143.64 193.69 142.58 211.52 C 129.14 213.07 115.14 213.15 102.16 208.98 C 102.16 198.83 100.54 188.65 101.59 178.52 C 104.06 175.71 107.09 173.36 109.06 170.11 C 114.95 160.13 116.53 148.35 116.99 136.97 C 116.21 125.37 114.42 113.17 107.54 103.45 C 104.15 98.64 98.63 94.30 92.39 95.36 C 86.54 95.99 82.40 100.75 79.50 105.45 C 73.69 115.21 71.83 126.79 71.60 137.99 C 71.93 149.18 73.77 160.74 79.57 170.50 C 81.50 173.82 85.17 175.83 86.93 179.17 C 87.55 187.02 86.54 194.90 86.64 202.76 C 72.91 195.13 61.43 183.38 54.80 169.08 C 50.01 159.05 47.58 148.02 46.78 136.97 C 45.68 119.11 47.11 100.52 55.13 84.25 C 64.18 65.30 81.63 50.82 101.65 44.71 Z" />
</g>
</svg>
